<mxfile host="app.diagrams.net" agent="Mozilla/5.0 (Macintosh; Intel Mac OS X 10_15_7) AppleWebKit/605.1.15 (KHTML, like Gecko) Version/16.6.1 Safari/605.1.15" version="25.0.3">
  <diagram id="C5RBs43oDa-KdzZeNtuy" name="Page-1">
    <mxGraphModel dx="1457" dy="2578" grid="0" gridSize="11" guides="1" tooltips="1" connect="1" arrows="1" fold="1" page="1" pageScale="1" pageWidth="1169" pageHeight="827" math="0" shadow="0">
      <root>
        <mxCell id="WIyWlLk6GJQsqaUBKTNV-0" />
        <mxCell id="WIyWlLk6GJQsqaUBKTNV-1" parent="WIyWlLk6GJQsqaUBKTNV-0" />
        <mxCell id="z6kYrJJEJBs9RtnSePmK-10" value="&lt;table style=&quot;width: 100%; height: 100%; border-collapse: collapse;&quot; cellpadding=&quot;4&quot; height=&quot;100%&quot; width=&quot;100%&quot; border=&quot;1&quot;&gt;&lt;tbody&gt;&lt;tr&gt;&lt;th&gt;&lt;font&gt;EMPLEADOS&lt;/font&gt;&lt;/th&gt;&lt;/tr&gt;&lt;tr&gt;&lt;td&gt;&lt;font&gt;- nombre: String&lt;br&gt;&lt;br&gt;- edad: int&lt;/font&gt;&lt;/td&gt;&lt;/tr&gt;&lt;tr&gt;&lt;td&gt;&lt;font&gt;&lt;span style=&quot;white-space: nowrap;&quot;&gt;+&amp;nbsp;Empleado(nombre : String, edad : int)&lt;/span&gt;&lt;br style=&quot;padding: 0px; margin: 0px; white-space: nowrap;&quot;&gt;&lt;span style=&quot;white-space: nowrap;&quot;&gt;&amp;nbsp;&lt;/span&gt;&lt;br style=&quot;padding: 0px; margin: 0px; white-space: nowrap;&quot;&gt;&lt;span style=&quot;white-space: nowrap;&quot;&gt;+&amp;nbsp;Empleado()&lt;/span&gt;&lt;br style=&quot;padding: 0px; margin: 0px; white-space: nowrap;&quot;&gt;&lt;span style=&quot;white-space: nowrap;&quot;&gt;&amp;nbsp;&lt;/span&gt;&lt;br style=&quot;padding: 0px; margin: 0px; white-space: nowrap;&quot;&gt;&lt;span style=&quot;white-space: nowrap;&quot;&gt;+&amp;nbsp;getNombre() : String&lt;/span&gt;&lt;br style=&quot;padding: 0px; margin: 0px; white-space: nowrap;&quot;&gt;&lt;br style=&quot;padding: 0px; margin: 0px; white-space: nowrap;&quot;&gt;&lt;span style=&quot;white-space: nowrap;&quot;&gt;+&amp;nbsp;setNombre(nombre : String) : void&amp;nbsp;&lt;/span&gt;&lt;br style=&quot;padding: 0px; margin: 0px; white-space: nowrap;&quot;&gt;&lt;br style=&quot;padding: 0px; margin: 0px; white-space: nowrap;&quot;&gt;&lt;span style=&quot;white-space: nowrap;&quot;&gt;+&amp;nbsp;getEdad() : int&lt;/span&gt;&lt;br style=&quot;padding: 0px; margin: 0px; white-space: nowrap;&quot;&gt;&lt;span style=&quot;white-space: nowrap;&quot;&gt;&amp;nbsp;&lt;/span&gt;&lt;br style=&quot;padding: 0px; margin: 0px; white-space: nowrap;&quot;&gt;&lt;span style=&quot;white-space: nowrap;&quot;&gt;+&amp;nbsp;setEdad(edad : int) : void &amp;nbsp;&lt;/span&gt;&lt;br&gt;&lt;/font&gt;&lt;/td&gt;&lt;/tr&gt;&lt;/tbody&gt;&lt;/table&gt;" style="text;html=1;whiteSpace=wrap;strokeColor=none;fillColor=none;overflow=fill;align=left;fontSize=15;" vertex="1" parent="WIyWlLk6GJQsqaUBKTNV-1">
          <mxGeometry x="11" y="-1388.5" width="308" height="341" as="geometry" />
        </mxCell>
        <mxCell id="z6kYrJJEJBs9RtnSePmK-15" value="&lt;table style=&quot;width: 100%; height: 100%; border-collapse: collapse;&quot; cellpadding=&quot;4&quot; height=&quot;100%&quot; width=&quot;100%&quot; border=&quot;1&quot;&gt;&lt;tbody&gt;&lt;tr&gt;&lt;th&gt;&lt;font&gt;CONTABLE&lt;/font&gt;&lt;/th&gt;&lt;/tr&gt;&lt;tr&gt;&lt;td&gt;&lt;font&gt;&lt;br&gt;&lt;/font&gt;&lt;/td&gt;&lt;/tr&gt;&lt;tr&gt;&lt;td&gt;&lt;font&gt;-&amp;nbsp;areaFinanciera:: String&lt;br&gt;&lt;br style=&quot;padding: 0px; margin: 0px; white-space: nowrap;&quot;&gt;&lt;span style=&quot;white-space: nowrap;&quot;&gt;+&amp;nbsp;getAreaFinanciera() : String&lt;/span&gt;&lt;br style=&quot;padding: 0px; margin: 0px; white-space: nowrap;&quot;&gt;&lt;br style=&quot;padding: 0px; margin: 0px; white-space: nowrap;&quot;&gt;&lt;span style=&quot;white-space: nowrap;&quot;&gt;+&amp;nbsp;set&lt;/span&gt;&lt;span style=&quot;white-space: nowrap;&quot;&gt;AreaFinanciera&lt;/span&gt;&lt;span style=&quot;white-space: nowrap;&quot;&gt;departamento : String) : void&amp;nbsp;&lt;/span&gt;&lt;br style=&quot;padding: 0px; margin: 0px; white-space: nowrap;&quot;&gt;&lt;br style=&quot;padding: 0px; margin: 0px; white-space: nowrap;&quot;&gt;&lt;span style=&quot;white-space: nowrap;&quot;&gt;+ Contable() :&amp;nbsp;&lt;/span&gt;&lt;span&gt;(nombre :&amp;nbsp;&lt;/span&gt;&lt;span class=&quot;hljs-type&quot;&gt;String&lt;/span&gt;&lt;span&gt;, edad :&amp;nbsp;&lt;/span&gt;&lt;span class=&quot;hljs-type&quot;&gt;int&lt;/span&gt;&lt;span&gt;, areaFinanciera :&amp;nbsp;&lt;/span&gt;&lt;span class=&quot;hljs-type&quot;&gt;String&lt;/span&gt;&lt;span&gt;)&lt;br&gt;&lt;/span&gt;&lt;span style=&quot;white-space: nowrap;&quot;&gt;&amp;nbsp;&lt;/span&gt;&lt;br style=&quot;padding: 0px; margin: 0px; white-space: nowrap;&quot;&gt;&lt;span style=&quot;white-space: nowrap;&quot;&gt;+ Contable(edad : int) : void &amp;nbsp;&lt;/span&gt;&lt;br&gt;&lt;/font&gt;&lt;/td&gt;&lt;/tr&gt;&lt;/tbody&gt;&lt;/table&gt;" style="text;html=1;whiteSpace=wrap;strokeColor=none;fillColor=none;overflow=fill;align=left;fontSize=15;" vertex="1" parent="WIyWlLk6GJQsqaUBKTNV-1">
          <mxGeometry x="550" y="-1353" width="462" height="267" as="geometry" />
        </mxCell>
        <mxCell id="z6kYrJJEJBs9RtnSePmK-17" value="&lt;table style=&quot;width: 100%; height: 100%; border-collapse: collapse;&quot; cellpadding=&quot;4&quot; height=&quot;100%&quot; width=&quot;100%&quot; border=&quot;1&quot;&gt;&lt;tbody&gt;&lt;tr&gt;&lt;th&gt;&lt;font&gt;ADMINISTRATIVO&lt;/font&gt;&lt;/th&gt;&lt;/tr&gt;&lt;tr&gt;&lt;td&gt;&lt;/td&gt;&lt;/tr&gt;&lt;tr&gt;&lt;td&gt;&lt;font&gt;&lt;font&gt;-&amp;nbsp;departamento: String&lt;br&gt;&lt;br style=&quot;padding: 0px; margin: 0px; white-space: nowrap;&quot;&gt;&lt;span style=&quot;white-space: nowrap;&quot;&gt;+&amp;nbsp;getDepartamento() : String&lt;/span&gt;&lt;br style=&quot;padding: 0px; margin: 0px; white-space: nowrap;&quot;&gt;&lt;br style=&quot;padding: 0px; margin: 0px; white-space: nowrap;&quot;&gt;&lt;span style=&quot;white-space: nowrap;&quot;&gt;+&amp;nbsp;setDepartamento (departamento : String) : void&amp;nbsp;&lt;/span&gt;&lt;br style=&quot;padding: 0px; margin: 0px; white-space: nowrap;&quot;&gt;&lt;br style=&quot;padding: 0px; margin: 0px; white-space: nowrap;&quot;&gt;&lt;span style=&quot;white-space: nowrap;&quot;&gt;+&amp;nbsp;getEdad() : int&lt;/span&gt;&lt;br style=&quot;padding: 0px; margin: 0px; white-space: nowrap;&quot;&gt;&lt;span style=&quot;white-space: nowrap;&quot;&gt;&amp;nbsp;&lt;/span&gt;&lt;br style=&quot;padding: 0px; margin: 0px; white-space: nowrap;&quot;&gt;&lt;span style=&quot;white-space: nowrap;&quot;&gt;+&amp;nbsp;setEdad(edad : int) : void &amp;nbsp;&lt;/span&gt;&lt;/font&gt;&lt;br&gt;&lt;/font&gt;&lt;/td&gt;&lt;/tr&gt;&lt;/tbody&gt;&lt;/table&gt;" style="text;html=1;whiteSpace=wrap;strokeColor=none;fillColor=none;overflow=fill;align=left;fontSize=15;" vertex="1" parent="WIyWlLk6GJQsqaUBKTNV-1">
          <mxGeometry x="550" y="-1639" width="463" height="259" as="geometry" />
        </mxCell>
        <mxCell id="z6kYrJJEJBs9RtnSePmK-18" value="&lt;table style=&quot;width: 100%; height: 100%; border-collapse: collapse;&quot; cellpadding=&quot;4&quot; height=&quot;100%&quot; width=&quot;100%&quot; border=&quot;1&quot;&gt;&lt;tbody&gt;&lt;tr&gt;&lt;th&gt;&lt;font&gt;INFORMATICO&lt;/font&gt;&lt;/th&gt;&lt;/tr&gt;&lt;tr&gt;&lt;td&gt;&lt;font&gt;&lt;br&gt;&lt;/font&gt;&lt;/td&gt;&lt;/tr&gt;&lt;tr&gt;&lt;td&gt;&lt;font&gt;- especialidad: String&lt;br&gt;&lt;br style=&quot;padding: 0px; margin: 0px; white-space: nowrap;&quot;&gt;&lt;span style=&quot;white-space: nowrap;&quot;&gt;+&amp;nbsp;getEspecialidad() : String&lt;/span&gt;&lt;br style=&quot;padding: 0px; margin: 0px; white-space: nowrap;&quot;&gt;&lt;br style=&quot;padding: 0px; margin: 0px; white-space: nowrap;&quot;&gt;&lt;span style=&quot;white-space: nowrap;&quot;&gt;+&lt;/span&gt;&lt;span style=&quot;white-space: nowrap;&quot;&gt;&amp;nbsp;setEspecialidad&lt;/span&gt;&lt;span style=&quot;white-space: nowrap;&quot;&gt;( especialidad : String) : void&amp;nbsp;&lt;/span&gt;&lt;br style=&quot;padding: 0px; margin: 0px; white-space: nowrap;&quot;&gt;&lt;br style=&quot;padding: 0px; margin: 0px; white-space: nowrap;&quot;&gt;&lt;span style=&quot;white-space: nowrap;&quot;&gt;+ Informatico() : int&lt;/span&gt;&lt;br style=&quot;padding: 0px; margin: 0px; white-space: nowrap;&quot;&gt;&lt;span style=&quot;white-space: nowrap;&quot;&gt;&amp;nbsp;&lt;/span&gt;&lt;br style=&quot;padding: 0px; margin: 0px; white-space: nowrap;&quot;&gt;&lt;span style=&quot;white-space: nowrap;&quot;&gt;+&amp;nbsp;&lt;/span&gt;&lt;span style=&quot;white-space: nowrap;&quot;&gt;Informatico&amp;nbsp;&lt;/span&gt;&lt;span style=&quot;white-space: nowrap;&quot;&gt;(edad : int) : void &amp;nbsp;&lt;/span&gt;&lt;br&gt;&lt;/font&gt;&lt;/td&gt;&lt;/tr&gt;&lt;/tbody&gt;&lt;/table&gt;" style="text;html=1;whiteSpace=wrap;strokeColor=none;fillColor=none;overflow=fill;align=left;fontSize=15;" vertex="1" parent="WIyWlLk6GJQsqaUBKTNV-1">
          <mxGeometry x="550" y="-1066" width="461" height="229" as="geometry" />
        </mxCell>
        <mxCell id="z6kYrJJEJBs9RtnSePmK-21" value="" style="html=1;verticalAlign=bottom;endArrow=block;curved=0;rounded=0;entryX=1.003;entryY=0.591;entryDx=0;entryDy=0;entryPerimeter=0;exitX=-0.001;exitY=0.62;exitDx=0;exitDy=0;exitPerimeter=0;fontSize=15;" edge="1" parent="WIyWlLk6GJQsqaUBKTNV-1" source="z6kYrJJEJBs9RtnSePmK-15" target="z6kYrJJEJBs9RtnSePmK-10">
          <mxGeometry width="80" relative="1" as="geometry">
            <mxPoint x="396" y="-1177" as="sourcePoint" />
            <mxPoint x="476" y="-1177" as="targetPoint" />
          </mxGeometry>
        </mxCell>
        <mxCell id="z6kYrJJEJBs9RtnSePmK-22" value="" style="html=1;verticalAlign=bottom;endArrow=block;curved=0;rounded=0;entryX=1;entryY=0.25;entryDx=0;entryDy=0;exitX=-0.001;exitY=0.62;exitDx=0;exitDy=0;exitPerimeter=0;fontSize=15;" edge="1" parent="WIyWlLk6GJQsqaUBKTNV-1" target="z6kYrJJEJBs9RtnSePmK-10">
          <mxGeometry width="80" relative="1" as="geometry">
            <mxPoint x="550" y="-1386" as="sourcePoint" />
            <mxPoint x="320" y="-1384" as="targetPoint" />
            <Array as="points">
              <mxPoint x="440" y="-1386" />
            </Array>
          </mxGeometry>
        </mxCell>
        <mxCell id="z6kYrJJEJBs9RtnSePmK-23" value="" style="html=1;verticalAlign=bottom;endArrow=block;curved=0;rounded=0;entryX=0.984;entryY=0.788;entryDx=0;entryDy=0;entryPerimeter=0;fontSize=15;" edge="1" parent="WIyWlLk6GJQsqaUBKTNV-1">
          <mxGeometry width="80" relative="1" as="geometry">
            <mxPoint x="552.93" y="-1008.21" as="sourcePoint" />
            <mxPoint x="319.0019999999999" y="-1083.002" as="targetPoint" />
            <Array as="points">
              <mxPoint x="444.93" y="-1008.21" />
            </Array>
          </mxGeometry>
        </mxCell>
      </root>
    </mxGraphModel>
  </diagram>
</mxfile>
